<svg xmlns="http://www.w3.org/2000/svg" viewBox="0 0 64 64">
  <path d="M32 4 8 14v18c0 15 10 24 24 28 14-4 24-13 24-28V14L32 4z" fill="#0e2a47"/>
  <path d="M32 9.5 13 17.4v14.4c0 12.2 8 19.9 19 23.5 11-3.6 19-11.3 19-23.5V17.4L32 9.5z" fill="#c9a227"/>
  <path d="M32 15 18.5 20.6v10.9c0 9 5.8 14.8 13.5 17.7 7.7-2.9 13.5-8.7 13.5-17.7V20.6L32 15z" fill="#0e2a47"/>
  <text x="32" y="38" font-family="Georgia, serif" font-size="17" font-weight="bold" fill="#c9a227" text-anchor="middle">DS</text>
</svg>
